<svg id="Layer_1" data-name="Layer 1" xmlns="http://www.w3.org/2000/svg" viewBox="0 0 197.7 246.9"><defs><style>.cls-1{fill:#fff;}</style></defs><g id="Layer_1-2" data-name="Layer 1"><g id="_2744621441408" data-name=" 2744621441408"><path class="cls-1" d="M192.54,246.9H5.57a4.91,4.91,0,0,1-4.77-5V101.29l.1-.1v-.41l.1-.1v-.2l.1-.1v-.2l.1-.11V100l.1-.1v-.1h.1v-.1l.1-.1v-.1l.1-.11v-.1l.09-.1.1-.1V99l.1-.1.1-.11v-.1l.1-.1.1-.1v-.1l.1-.1v.61h.1l.1-.11v-.1l.1-.1.1-.1v-.1h.1v-.1l.1-.1L3,98l.1-.1v-.1h.1l.09-.1.1-.1.1-.1v-.1h.1l.1-.11.1-.1.1-.1L41.25,58.88V48.12l.1-.1v-.2a.39.39,0,0,0,.1-.31,4.59,4.59,0,0,0,.3-.71c0-.1.1-.2.1-.3s.1-.2.2-.31.1-.2.2-.2a2.92,2.92,0,0,1,.5-.61l.19-.2a4.37,4.37,0,0,1,.7-.61c.1,0,.1-.1.2-.1l.3-.2.3-.21a1.37,1.37,0,0,1,.69-.2.35.35,0,0,0,.2-.1H43.74l.1-.1h.3c.1,0,.2,0,.2-.1H54.67L95.72,1.45a4.67,4.67,0,0,1,6.76,0l41,42.41h10.44l.1.1h.4l.1.1h.1l.1.1h.1l.09.11h.1l.1-.21.1.1h.2l.1.11a5,5,0,0,1,2.88,4.56V59.69l37.38,38.25.1.1h.1v.11H196v.1h.1v.1l.1.1.1.1.1.1.1.1.1.11.1.1.1.1.1.1v.1l.1.1.1.11v.1l.1.1h.1v.1l.1.1v.1l.1.1.1.11v.1l.09.1v.1l.1.1v.1l.1.1v.11l.1.1.1.2v.1a6,6,0,0,1,.4,1.83V243.55C197.31,244.67,195.12,246.9,192.54,246.9ZM148.8,140V53.7H49.4v86.15l49.7,51.44Zm-86.87-4.36a4.85,4.85,0,0,1-4.77-5,4.92,4.92,0,0,1,4.77-5h73.95a4.86,4.86,0,0,1,4.77,5,4.91,4.91,0,0,1-4.77,5Zm-.1-29.12a4.92,4.92,0,0,1-4.77-5,5,5,0,0,1,4.77-5h74.05a5,5,0,0,1,0,10Zm0-28.31a4.92,4.92,0,0,1-4.77-5,5,5,0,0,1,4.77-5h74.05a5,5,0,0,1,0,10ZM95.72,201.85,41.25,145.53l-.09-.1L10.44,113.57V237.06H187.86V113.57l-85.38,88.28A4.87,4.87,0,0,1,95.72,201.85ZM39.86,130V106.57H17.1Zm0-33.28V73.49L17.1,96.73ZM68.19,43.86h61.73L99,11.9Zm90.05,29.63V96.73h22.67Zm0,33.08V130L181,106.57Z" transform="translate(-0.8)"/></g></g></svg>